<svg
      width="40"
      height="40"
      viewBox="0 0 40 40"
      fill="none"
      xmlns="http://www.w3.org/2000/svg"
    >
      <path
        d="M26.6664 37.9166H13.3331C5.63306 37.9166 4.19973 34.3333 3.83306 30.8499L2.58306 17.4999C2.39973 15.7499 2.34973 13.1666 4.08306 11.2333C5.58306 9.5666 8.06639 8.7666 11.6664 8.7666H28.3331C31.9497 8.7666 34.4331 9.58327 35.9164 11.2333C37.6497 13.1666 37.5997 15.7499 37.4164 17.5166L36.1664 30.8333C35.7997 34.3333 34.3664 37.9166 26.6664 37.9166ZM11.6664 11.2499C8.84973 11.2499 6.91639 11.7999 5.93306 12.8999C5.11639 13.7999 4.84973 15.1833 5.06639 17.2499L6.31639 30.5999C6.59973 33.2333 7.3164 35.4166 13.3331 35.4166H26.6664C32.6664 35.4166 33.3997 33.2333 33.6831 30.5833L34.9331 17.2666C35.1497 15.1833 34.8831 13.7999 34.0664 12.8999C33.0831 11.7999 31.1497 11.2499 28.3331 11.2499H11.6664Z"
        fill="white"
      />
      <path
        d="M26.6673 11.2502C25.984 11.2502 25.4173 10.6835 25.4173 10.0002V8.66683C25.4173 5.70016 25.4173 4.5835 21.334 4.5835H18.6673C14.584 4.5835 14.584 5.70016 14.584 8.66683V10.0002C14.584 10.6835 14.0173 11.2502 13.334 11.2502C12.6507 11.2502 12.084 10.6835 12.084 10.0002V8.66683C12.084 5.7335 12.084 2.0835 18.6673 2.0835H21.334C27.9173 2.0835 27.9173 5.7335 27.9173 8.66683V10.0002C27.9173 10.6835 27.3507 11.2502 26.6673 11.2502Z"
        fill="white"
      />
      <path
        d="M19.9993 27.9167C15.416 27.9167 15.416 25.0833 15.416 23.3833V21.6667C15.416 19.3167 15.9827 18.75 18.3327 18.75H21.666C24.016 18.75 24.5827 19.3167 24.5827 21.6667V23.3333C24.5827 25.0667 24.5827 27.9167 19.9993 27.9167ZM17.916 21.25C17.916 21.3833 17.916 21.5333 17.916 21.6667V23.3833C17.916 25.1 17.916 25.4167 19.9993 25.4167C22.0827 25.4167 22.0827 25.15 22.0827 23.3667V21.6667C22.0827 21.5333 22.0827 21.3833 22.0827 21.25C21.9493 21.25 21.7993 21.25 21.666 21.25H18.3327C18.1993 21.25 18.0493 21.25 17.916 21.25Z"
        fill="white"
      />
      <path
        d="M23.3325 24.6167C22.7159 24.6167 22.1659 24.1501 22.0992 23.5167C22.0159 22.8334 22.4992 22.2001 23.1825 22.1167C27.5825 21.5667 31.7992 19.9001 35.3492 17.3167C35.8992 16.9001 36.6825 17.0334 37.0992 17.6001C37.4992 18.1501 37.3825 18.9334 36.8159 19.3501C32.9159 22.1834 28.3159 24.0001 23.4825 24.6167C23.4325 24.6167 23.3825 24.6167 23.3325 24.6167Z"
        fill="white"
      />
      <path
        d="M16.6659 24.6333C16.6159 24.6333 16.5659 24.6333 16.5159 24.6333C11.9493 24.1167 7.49925 22.45 3.64925 19.8167C3.08258 19.4333 2.93258 18.65 3.31592 18.0833C3.69925 17.5167 4.48258 17.3667 5.04925 17.75C8.56592 20.15 12.6159 21.6667 16.7826 22.15C17.4659 22.2333 17.9659 22.85 17.8826 23.5333C17.8326 24.1667 17.2993 24.6333 16.6659 24.6333Z"
        fill="white"
      />
    </svg>